<svg xmlns="http://www.w3.org/2000/svg" xmlns:xlink="http://www.w3.org/1999/xlink" width="480" zoomAndPan="magnify" viewBox="0 0 360 359.999987" height="480" preserveAspectRatio="xMidYMid meet" version="1.0"><defs><clipPath id="9862408bf6"><path d="M 11.300781 11.300781 L 348.800781 11.300781 L 348.800781 348.800781 L 11.300781 348.800781 Z M 11.300781 11.300781 " clip-rule="nonzero"/></clipPath></defs><g clip-path="url(#9862408bf6)"><path fill="#1800ad" d="M 179.996094 348.695312 C 86.972656 348.695312 11.300781 273.023438 11.300781 179.996094 C 11.300781 86.972656 86.972656 11.300781 179.996094 11.300781 C 273.023438 11.300781 348.695312 86.972656 348.695312 179.996094 C 348.695312 273.023438 273.023438 348.695312 179.996094 348.695312 Z M 179.996094 18.917969 C 91.203125 18.917969 18.917969 91.203125 18.917969 179.996094 C 18.917969 268.789062 91.203125 341.078125 179.996094 341.078125 C 268.789062 341.078125 341.078125 268.789062 341.078125 179.996094 C 341.078125 91.203125 268.875 18.917969 179.996094 18.917969 Z M 179.996094 18.917969 " fill-opacity="1" fill-rule="nonzero"/></g><path fill="#1800ad" d="M 117.585938 86.089844 C 142.808594 105.105469 169.84375 143.519531 179.933594 164.34375 C 190.148438 143.519531 217.183594 105.105469 242.40625 86.089844 C 260.773438 72.25 290.394531 61.773438 290.394531 95.789062 C 290.394531 102.515625 286.515625 152.703125 284.1875 160.851562 C 276.296875 189.050781 247.582031 196.292969 221.96875 191.894531 C 266.722656 199.527344 278.105469 224.878906 253.53125 250.234375 C 206.835938 298.222656 186.527344 238.074219 181.226562 222.679688 C 180.578125 220.871094 180.191406 219.707031 179.933594 219.316406 C 179.800781 219.707031 179.414062 220.871094 178.765625 222.679688 C 173.464844 238.074219 153.027344 298.222656 106.460938 250.234375 C 81.886719 224.878906 93.269531 199.527344 138.023438 191.894531 C 112.410156 196.292969 83.695312 189.050781 75.675781 160.851562 C 73.476562 152.703125 69.597656 102.515625 69.597656 95.789062 C 69.597656 61.773438 99.21875 72.25 117.585938 86.089844 Z M 117.585938 86.089844 " fill-opacity="1" fill-rule="evenodd"/></svg>