<svg xmlns="http://www.w3.org/2000/svg" xmlns:xlink="http://www.w3.org/1999/xlink" width="480" zoomAndPan="magnify" viewBox="0 0 360 359.999987" height="480" preserveAspectRatio="xMidYMid meet" version="1.0"><defs><clipPath id="7f6cfb9ebf"><path d="M 25.546875 25.546875 L 334.546875 25.546875 L 334.546875 334.546875 L 25.546875 334.546875 Z M 25.546875 25.546875 " clip-rule="nonzero"/></clipPath></defs><path fill="#ffffff" d="M 117.585938 86.089844 C 142.808594 105.105469 169.84375 143.519531 179.933594 164.34375 C 190.148438 143.519531 217.183594 105.105469 242.40625 86.089844 C 260.773438 72.25 290.394531 61.773438 290.394531 95.789062 C 290.394531 102.515625 286.515625 152.703125 284.1875 160.851562 C 276.296875 189.050781 247.582031 196.292969 221.96875 191.894531 C 266.722656 199.527344 278.105469 224.878906 253.53125 250.234375 C 206.835938 298.222656 186.527344 238.074219 181.226562 222.679688 C 180.578125 220.871094 180.191406 219.707031 179.933594 219.316406 C 179.800781 219.707031 179.414062 220.871094 178.765625 222.679688 C 173.464844 238.074219 153.027344 298.222656 106.460938 250.234375 C 81.886719 224.878906 93.269531 199.527344 138.023438 191.894531 C 112.410156 196.292969 83.695312 189.050781 75.675781 160.851562 C 73.476562 152.703125 69.597656 102.515625 69.597656 95.789062 C 69.597656 61.773438 99.21875 72.25 117.585938 86.089844 Z M 117.585938 86.089844 " fill-opacity="1" fill-rule="evenodd"/><g clip-path="url(#7f6cfb9ebf)"><path fill="#ffffff" d="M 297.640625 25.546875 L 62.351562 25.546875 C 61.144531 25.550781 59.945312 25.609375 58.746094 25.730469 C 57.546875 25.851562 56.355469 26.027344 55.175781 26.265625 C 53.992188 26.503906 52.828125 26.796875 51.675781 27.148438 C 50.523438 27.496094 49.390625 27.902344 48.277344 28.367188 C 47.164062 28.828125 46.078125 29.34375 45.015625 29.910156 C 43.953125 30.480469 42.921875 31.097656 41.917969 31.769531 C 40.917969 32.4375 39.949219 33.15625 39.019531 33.921875 C 38.089844 34.683594 37.195312 35.492188 36.34375 36.34375 C 35.492188 37.195312 34.683594 38.089844 33.921875 39.019531 C 33.15625 39.949219 32.4375 40.917969 31.769531 41.917969 C 31.097656 42.921875 30.480469 43.953125 29.910156 45.015625 C 29.34375 46.078125 28.828125 47.164062 28.367188 48.277344 C 27.902344 49.390625 27.496094 50.523438 27.148438 51.675781 C 26.796875 52.828125 26.503906 53.992188 26.265625 55.175781 C 26.027344 56.355469 25.851562 57.546875 25.730469 58.746094 C 25.609375 59.945312 25.550781 61.144531 25.546875 62.351562 L 25.546875 297.640625 C 25.550781 298.84375 25.609375 300.046875 25.730469 301.246094 C 25.851562 302.445312 26.027344 303.636719 26.265625 304.816406 C 26.503906 305.996094 26.796875 307.164062 27.148438 308.316406 C 27.496094 309.46875 27.902344 310.601562 28.367188 311.714844 C 28.828125 312.828125 29.34375 313.914062 29.910156 314.976562 C 30.480469 316.039062 31.097656 317.070312 31.769531 318.074219 C 32.4375 319.074219 33.15625 320.039062 33.921875 320.972656 C 34.683594 321.902344 35.492188 322.792969 36.34375 323.644531 C 37.195312 324.496094 38.089844 325.304688 39.019531 326.070312 C 39.949219 326.835938 40.917969 327.550781 41.917969 328.222656 C 42.921875 328.890625 43.953125 329.511719 45.015625 330.078125 C 46.078125 330.648438 47.164062 331.164062 48.277344 331.625 C 49.390625 332.085938 50.523438 332.492188 51.675781 332.84375 C 52.828125 333.195312 53.992188 333.488281 55.175781 333.726562 C 56.355469 333.960938 57.546875 334.140625 58.746094 334.261719 C 59.945312 334.378906 61.144531 334.441406 62.351562 334.441406 L 297.640625 334.441406 C 298.84375 334.441406 300.046875 334.378906 301.246094 334.261719 C 302.445312 334.140625 303.636719 333.960938 304.816406 333.726562 C 305.996094 333.488281 307.164062 333.195312 308.316406 332.84375 C 309.46875 332.492188 310.601562 332.085938 311.714844 331.625 C 312.828125 331.164062 313.914062 330.648438 314.976562 330.078125 C 316.039062 329.511719 317.070312 328.890625 318.074219 328.222656 C 319.074219 327.550781 320.039062 326.835938 320.972656 326.070312 C 321.902344 325.304688 322.792969 324.496094 323.644531 323.644531 C 324.496094 322.792969 325.304688 321.902344 326.070312 320.972656 C 326.835938 320.039062 327.550781 319.074219 328.222656 318.074219 C 328.890625 317.070312 329.511719 316.039062 330.078125 314.976562 C 330.648438 313.914062 331.164062 312.828125 331.625 311.714844 C 332.085938 310.601562 332.492188 309.46875 332.84375 308.316406 C 333.195312 307.164062 333.488281 305.996094 333.726562 304.816406 C 333.960938 303.636719 334.140625 302.445312 334.261719 301.246094 C 334.378906 300.046875 334.441406 298.84375 334.441406 297.640625 L 334.441406 62.351562 C 334.441406 61.144531 334.378906 59.945312 334.261719 58.746094 C 334.140625 57.546875 333.960938 56.355469 333.726562 55.175781 C 333.488281 53.992188 333.195312 52.828125 332.84375 51.675781 C 332.492188 50.523438 332.085938 49.390625 331.625 48.277344 C 331.164062 47.164062 330.648438 46.078125 330.078125 45.015625 C 329.511719 43.953125 328.890625 42.921875 328.222656 41.917969 C 327.550781 40.917969 326.835938 39.949219 326.070312 39.019531 C 325.304688 38.089844 324.496094 37.195312 323.644531 36.34375 C 322.792969 35.492188 321.902344 34.683594 320.972656 33.921875 C 320.039062 33.15625 319.074219 32.4375 318.074219 31.769531 C 317.070312 31.097656 316.039062 30.480469 314.976562 29.910156 C 313.914062 29.34375 312.828125 28.828125 311.714844 28.367188 C 310.601562 27.902344 309.46875 27.496094 308.316406 27.148438 C 307.164062 26.796875 305.996094 26.503906 304.816406 26.265625 C 303.636719 26.027344 302.445312 25.851562 301.246094 25.730469 C 300.046875 25.609375 298.84375 25.550781 297.640625 25.546875 Z M 329.699219 297.640625 C 329.695312 298.691406 329.644531 299.738281 329.539062 300.78125 C 329.433594 301.824219 329.277344 302.863281 329.070312 303.890625 C 328.867188 304.917969 328.609375 305.9375 328.304688 306.941406 C 328 307.945312 327.644531 308.929688 327.242188 309.898438 C 326.839844 310.867188 326.390625 311.816406 325.894531 312.742188 C 325.398438 313.664062 324.859375 314.5625 324.277344 315.4375 C 323.695312 316.308594 323.070312 317.152344 322.402344 317.960938 C 321.738281 318.773438 321.03125 319.550781 320.292969 320.292969 C 319.550781 321.03125 318.773438 321.738281 317.960938 322.402344 C 317.152344 323.070312 316.308594 323.695312 315.4375 324.277344 C 314.5625 324.859375 313.664062 325.398438 312.742188 325.894531 C 311.816406 326.390625 310.867188 326.839844 309.898438 327.242188 C 308.929688 327.644531 307.945312 328 306.941406 328.304688 C 305.9375 328.609375 304.917969 328.867188 303.890625 329.070312 C 302.863281 329.277344 301.824219 329.433594 300.78125 329.539062 C 299.738281 329.644531 298.691406 329.695312 297.640625 329.699219 L 62.351562 329.699219 C 61.300781 329.695312 60.253906 329.644531 59.210938 329.539062 C 58.167969 329.433594 57.128906 329.277344 56.101562 329.070312 C 55.070312 328.867188 54.054688 328.609375 53.050781 328.304688 C 52.046875 328 51.0625 327.644531 50.09375 327.242188 C 49.121094 326.839844 48.175781 326.390625 47.25 325.894531 C 46.324219 325.398438 45.425781 324.859375 44.554688 324.277344 C 43.683594 323.695312 42.839844 323.070312 42.03125 322.402344 C 41.21875 321.738281 40.441406 321.03125 39.699219 320.292969 C 38.957031 319.550781 38.253906 318.773438 37.589844 317.960938 C 36.921875 317.152344 36.296875 316.308594 35.714844 315.4375 C 35.132812 314.5625 34.589844 313.664062 34.097656 312.742188 C 33.601562 311.816406 33.152344 310.867188 32.75 309.898438 C 32.347656 308.929688 31.992188 307.945312 31.6875 306.941406 C 31.382812 305.9375 31.125 304.917969 30.917969 303.890625 C 30.714844 302.863281 30.558594 301.824219 30.453125 300.78125 C 30.347656 299.738281 30.296875 298.691406 30.292969 297.640625 L 30.292969 62.351562 C 30.296875 61.300781 30.347656 60.253906 30.453125 59.210938 C 30.558594 58.167969 30.714844 57.128906 30.917969 56.101562 C 31.125 55.070312 31.382812 54.054688 31.6875 53.050781 C 31.992188 52.046875 32.347656 51.0625 32.75 50.09375 C 33.152344 49.121094 33.601562 48.175781 34.097656 47.25 C 34.589844 46.324219 35.132812 45.425781 35.714844 44.554688 C 36.296875 43.683594 36.921875 42.839844 37.589844 42.03125 C 38.253906 41.21875 38.957031 40.441406 39.699219 39.699219 C 40.441406 38.957031 41.21875 38.253906 42.03125 37.589844 C 42.839844 36.921875 43.683594 36.296875 44.554688 35.714844 C 45.425781 35.132812 46.324219 34.589844 47.25 34.097656 C 48.175781 33.601562 49.121094 33.152344 50.09375 32.75 C 51.0625 32.347656 52.046875 31.992188 53.050781 31.6875 C 54.054688 31.382812 55.070312 31.125 56.101562 30.917969 C 57.128906 30.714844 58.167969 30.558594 59.210938 30.453125 C 60.253906 30.347656 61.300781 30.296875 62.351562 30.292969 L 297.640625 30.292969 C 298.691406 30.296875 299.738281 30.347656 300.78125 30.453125 C 301.824219 30.558594 302.863281 30.714844 303.890625 30.917969 C 304.917969 31.125 305.9375 31.382812 306.941406 31.6875 C 307.945312 31.992188 308.929688 32.347656 309.898438 32.75 C 310.867188 33.152344 311.816406 33.601562 312.742188 34.097656 C 313.664062 34.589844 314.5625 35.132812 315.4375 35.714844 C 316.308594 36.296875 317.152344 36.921875 317.960938 37.589844 C 318.773438 38.253906 319.550781 38.957031 320.292969 39.699219 C 321.03125 40.441406 321.738281 41.21875 322.402344 42.03125 C 323.070312 42.839844 323.695312 43.683594 324.277344 44.554688 C 324.859375 45.425781 325.398438 46.324219 325.894531 47.25 C 326.390625 48.175781 326.839844 49.121094 327.242188 50.09375 C 327.644531 51.0625 328 52.046875 328.304688 53.050781 C 328.609375 54.054688 328.867188 55.070312 329.070312 56.101562 C 329.277344 57.128906 329.433594 58.167969 329.539062 59.210938 C 329.644531 60.253906 329.695312 61.300781 329.699219 62.351562 Z M 329.699219 297.640625 " fill-opacity="1" fill-rule="nonzero"/></g></svg>