<svg xmlns="http://www.w3.org/2000/svg" xmlns:xlink="http://www.w3.org/1999/xlink" width="480" zoomAndPan="magnify" viewBox="0 0 360 359.999987" height="480" preserveAspectRatio="xMidYMid meet" version="1.0"><defs><clipPath id="a4fc8f5a94"><path d="M 12.863281 15.894531 L 347.363281 15.894531 L 347.363281 350.394531 L 12.863281 350.394531 Z M 12.863281 15.894531 " clip-rule="nonzero"/></clipPath><clipPath id="deb3d18f20"><path d="M 107.941406 43.421875 L 248.941406 43.421875 L 248.941406 322.421875 L 107.941406 322.421875 Z M 107.941406 43.421875 " clip-rule="nonzero"/></clipPath><clipPath id="4b0c123048"><path d="M 196.960938 322.644531 L 141.957031 322.644531 L 141.957031 181.1875 L 107.949219 181.1875 L 107.949219 134.527344 L 141.957031 134.527344 L 141.957031 119.53125 C 141.957031 94.472656 147.714844 75.523438 159.238281 62.6875 C 170.882812 49.847656 189.589844 43.429688 215.355469 43.429688 C 220.0625 43.429688 225.761719 43.738281 232.453125 44.355469 C 239.265625 44.851562 244.777344 45.40625 248.988281 46.023438 L 248.988281 92.125 C 247.007812 91.878906 244.035156 91.632812 240.070312 91.386719 C 236.230469 91.015625 233.257812 90.832031 231.152344 90.832031 C 219.011719 90.832031 210.277344 93.300781 204.949219 98.238281 C 199.621094 103.175781 196.960938 111.691406 196.960938 123.789062 L 196.960938 134.527344 L 247.875 134.527344 L 241.742188 181.1875 L 196.960938 181.1875 Z M 196.960938 322.644531 " clip-rule="nonzero"/></clipPath></defs><g clip-path="url(#a4fc8f5a94)"><path fill="#1800ad" d="M 179.996094 350.160156 C 87.835938 350.160156 12.863281 275.1875 12.863281 183.027344 C 12.863281 90.863281 87.835938 15.894531 179.996094 15.894531 C 272.160156 15.894531 347.128906 90.863281 347.128906 183.027344 C 347.128906 275.1875 272.160156 350.160156 179.996094 350.160156 Z M 179.996094 23.441406 C 92.027344 23.441406 20.410156 95.058594 20.410156 183.027344 C 20.410156 270.996094 92.027344 342.613281 179.996094 342.613281 C 267.964844 342.613281 339.582031 270.996094 339.582031 183.027344 C 339.582031 95.058594 268.050781 23.441406 179.996094 23.441406 Z M 179.996094 23.441406 " fill-opacity="1" fill-rule="nonzero"/></g><g clip-path="url(#deb3d18f20)"><g clip-path="url(#4b0c123048)"><path fill="#1800ad" d="M 107.949219 43.429688 L 107.949219 322.421875 L 248.941406 322.421875 L 248.941406 43.429688 Z M 107.949219 43.429688 " fill-opacity="1" fill-rule="nonzero"/></g></g></svg>