<svg xmlns="http://www.w3.org/2000/svg" xmlns:xlink="http://www.w3.org/1999/xlink" width="480" zoomAndPan="magnify" viewBox="0 0 360 359.999987" height="480" preserveAspectRatio="xMidYMid meet" version="1.0"><defs><clipPath id="9b9a60fe26"><path d="M 13.308594 13.308594 L 347 13.308594 L 347 347 L 13.308594 347 Z M 13.308594 13.308594 " clip-rule="nonzero"/></clipPath><clipPath id="8f319ecf5a"><path d="M 58.199219 58.199219 L 301.949219 58.199219 L 301.949219 301.949219 L 58.199219 301.949219 Z M 58.199219 58.199219 " clip-rule="nonzero"/></clipPath></defs><g clip-path="url(#9b9a60fe26)"><path fill="#1800ad" d="M 179.996094 346.683594 C 88.082031 346.683594 13.308594 271.914062 13.308594 179.996094 C 13.308594 88.082031 88.082031 13.308594 179.996094 13.308594 C 271.914062 13.308594 346.683594 88.082031 346.683594 179.996094 C 346.683594 271.914062 271.914062 346.683594 179.996094 346.683594 Z M 179.996094 20.835938 C 92.261719 20.835938 20.835938 92.261719 20.835938 179.996094 C 20.835938 267.730469 92.261719 339.15625 179.996094 339.15625 C 267.730469 339.15625 339.15625 267.730469 339.15625 179.996094 C 339.15625 92.261719 267.816406 20.835938 179.996094 20.835938 Z M 179.996094 20.835938 " fill-opacity="1" fill-rule="nonzero"/></g><path fill="#1800ad" d="M 180 115.335938 C 144.339844 115.335938 115.332031 144.335938 115.332031 179.992188 C 115.332031 215.648438 144.339844 244.660156 180 244.660156 C 215.65625 244.660156 244.667969 215.648438 244.667969 179.992188 C 244.667969 144.335938 215.65625 115.335938 180 115.335938 Z M 180 221.839844 C 156.929688 221.839844 138.160156 203.066406 138.160156 179.992188 C 138.160156 156.917969 156.929688 138.152344 180 138.152344 C 203.070312 138.152344 221.835938 156.917969 221.835938 179.992188 C 221.835938 203.066406 203.070312 221.839844 180 221.839844 Z M 180 221.839844 " fill-opacity="1" fill-rule="nonzero"/><path fill="#1800ad" d="M 247.097656 99.820312 C 239.878906 99.820312 234.027344 105.675781 234.027344 112.890625 C 234.027344 120.117188 239.878906 125.964844 247.097656 125.964844 C 254.3125 125.964844 260.164062 120.117188 260.164062 112.890625 C 260.164062 105.675781 254.3125 99.820312 247.097656 99.820312 Z M 247.097656 99.820312 " fill-opacity="1" fill-rule="nonzero"/><g clip-path="url(#8f319ecf5a)"><path fill="#1800ad" d="M 243.792969 58.203125 L 116.203125 58.203125 C 84.21875 58.203125 58.199219 84.214844 58.199219 116.195312 L 58.199219 243.789062 C 58.199219 275.769531 84.21875 301.789062 116.203125 301.789062 L 243.792969 301.789062 C 275.773438 301.789062 301.796875 275.769531 301.796875 243.789062 L 301.796875 116.195312 C 301.796875 84.214844 275.773438 58.203125 243.792969 58.203125 Z M 278.964844 243.789062 C 278.964844 263.183594 263.1875 278.96875 243.792969 278.96875 L 116.203125 278.96875 C 96.808594 278.96875 81.027344 263.183594 81.027344 243.789062 L 81.027344 116.195312 C 81.027344 96.800781 96.808594 81.023438 116.203125 81.023438 L 243.792969 81.023438 C 263.1875 81.023438 278.964844 96.800781 278.964844 116.195312 Z M 278.964844 243.789062 " fill-opacity="1" fill-rule="nonzero"/></g></svg>