<svg xmlns="http://www.w3.org/2000/svg" xmlns:xlink="http://www.w3.org/1999/xlink" width="480" zoomAndPan="magnify" viewBox="0 0 360 359.999987" height="480" preserveAspectRatio="xMidYMid meet" version="1.0"><defs><clipPath id="67e525f1ff"><path d="M 10.628906 10.628906 L 349.628906 10.628906 L 349.628906 349.628906 L 10.628906 349.628906 Z M 10.628906 10.628906 " clip-rule="nonzero"/></clipPath><clipPath id="e967e7751b"><path d="M 77 75 L 211 75 L 211 285.316406 L 77 285.316406 Z M 77 75 " clip-rule="nonzero"/></clipPath><clipPath id="9ab2e972f8"><path d="M 77 74.566406 L 212 74.566406 L 212 285.316406 L 77 285.316406 Z M 77 74.566406 " clip-rule="nonzero"/></clipPath></defs><g clip-path="url(#67e525f1ff)"><path fill="#1800ad" d="M 179.996094 349.359375 C 86.601562 349.359375 10.628906 273.386719 10.628906 179.996094 C 10.628906 86.601562 86.601562 10.628906 179.996094 10.628906 C 273.386719 10.628906 349.359375 86.601562 349.359375 179.996094 C 349.359375 273.386719 273.386719 349.359375 179.996094 349.359375 Z M 179.996094 18.277344 C 90.851562 18.277344 18.277344 90.851562 18.277344 179.996094 C 18.277344 269.140625 90.851562 341.710938 179.996094 341.710938 C 269.140625 341.710938 341.710938 269.140625 341.710938 179.996094 C 341.710938 90.851562 269.222656 18.277344 179.996094 18.277344 Z M 179.996094 18.277344 " fill-opacity="1" fill-rule="nonzero"/></g><path fill="#1800ad" d="M 210.082031 111.617188 C 206.691406 100.023438 204.277344 88.285156 210.902344 75.210938 C 211.78125 75.144531 219.015625 75.285156 219.273438 75.308594 C 220.820312 75.457031 222.382812 75.671875 223.90625 75.953125 C 252.757812 81.273438 276.375 109.539062 280.425781 124.90625 C 281.738281 129.949219 281.902344 132.566406 282.265625 136.6875 C 283.703125 153.871094 272.03125 183.074219 253.332031 191.6875 C 263.082031 183.710938 279.433594 142.035156 231.679688 118.046875 C 219.191406 111.773438 210.167969 109.996094 210.082031 111.617188 Z M 210.082031 111.617188 " fill-opacity="1" fill-rule="nonzero"/><g clip-path="url(#e967e7751b)"><path fill="#1800ad" d="M 174.828125 75.476562 L 210.777344 75.34375 C 209.472656 96.835938 210.644531 220.4375 210.644531 220.4375 C 210.382812 240.757812 201.660156 255.863281 191.105469 265.890625 C 190.195312 266.804688 189.285156 267.71875 188.242188 268.496094 C 174.699219 279.960938 161.414062 285.300781 143.179688 285.171875 C 125.203125 284.910156 111.65625 278.136719 100.195312 268.238281 C 91.601562 260.816406 84.699219 251.175781 80.789062 237.890625 C 72.324219 208.71875 83.265625 180.324219 107.492188 163.78125 C 107.882812 163.390625 108.402344 163 108.921875 162.738281 C 119.996094 155.054688 137.1875 150.496094 153.207031 153.101562 L 153.207031 189.832031 C 142.136719 186.964844 132.238281 189.441406 124.945312 195.558594 C 124.816406 195.558594 124.816406 195.691406 124.683594 195.820312 C 117.652344 201.8125 113.609375 210.671875 114.132812 220.699219 C 115.4375 238.671875 130.285156 249.875 146.433594 249.09375 C 146.433594 249.09375 146.5625 249.09375 146.5625 249.09375 C 162.195312 247.527344 175.089844 234.765625 174.699219 217.574219 Z M 174.828125 75.476562 " fill-opacity="1" fill-rule="evenodd"/></g><g clip-path="url(#9ab2e972f8)"><path stroke-linecap="round" transform="matrix(1.302453, 0, 0, 1.302453, -27887.439073, -26947.173394)" fill="none" stroke-linejoin="miter" d="M 21545.700438 20747.501152 L 21573.301597 20747.39918 C 21572.299882 20763.900493 21573.199626 20858.799534 21573.199626 20858.799534 C 21572.998683 20874.401101 21566.301586 20885.998807 21558.197888 20893.69762 C 21557.499086 20894.39942 21556.800285 20895.101221 21555.999512 20895.698051 C 21545.601466 20904.500551 21535.401364 20908.600386 21521.401341 20908.501414 C 21507.599262 20908.300471 21497.198217 20903.099949 21488.398717 20895.500108 C 21481.800591 20889.801726 21476.501096 20882.399829 21473.498949 20872.199727 C 21466.999796 20849.80209 21475.400409 20828.001283 21494.001125 20815.299891 C 21494.30104 20814.999976 21494.699927 20814.700061 21495.098813 20814.499119 C 21503.601398 20808.599794 21516.800648 20805.099789 21529.100154 20807.10022 L 21529.100154 20835.301209 C 21520.600569 20833.099834 21513.000728 20835.001294 21507.401318 20839.69796 C 21507.302346 20839.69796 21507.302346 20839.799931 21507.200375 20839.898903 C 21501.801909 20844.499596 21498.697791 20851.301664 21499.099677 20859.000476 C 21500.101392 20872.799556 21511.501154 20881.401113 21523.899631 20880.801283 C 21523.899631 20880.801283 21523.998603 20880.801283 21523.998603 20880.801283 C 21536.001194 20879.598625 21545.901381 20869.800408 21545.601466 20856.601158 Z M 21545.700438 20747.501152 " stroke="#000000" stroke-width="0.17" stroke-opacity="1" stroke-miterlimit="1.5"/></g></svg>