<svg xmlns="http://www.w3.org/2000/svg" xmlns:xlink="http://www.w3.org/1999/xlink" width="480" zoomAndPan="magnify" viewBox="0 0 360 359.999987" height="480" preserveAspectRatio="xMidYMid meet" version="1.0"><defs><clipPath id="7d93f3fa80"><path d="M 77 75 L 211 75 L 211 285.316406 L 77 285.316406 Z M 77 75 " clip-rule="nonzero"/></clipPath><clipPath id="403a563e53"><path d="M 77 74.566406 L 212 74.566406 L 212 285.316406 L 77 285.316406 Z M 77 74.566406 " clip-rule="nonzero"/></clipPath><clipPath id="feb7b5e1e3"><path d="M 25.546875 25.546875 L 334.546875 25.546875 L 334.546875 334.546875 L 25.546875 334.546875 Z M 25.546875 25.546875 " clip-rule="nonzero"/></clipPath></defs><path fill="#ffffff" d="M 210.082031 111.617188 C 206.691406 100.023438 204.277344 88.285156 210.902344 75.210938 C 211.78125 75.144531 219.015625 75.285156 219.273438 75.308594 C 220.820312 75.457031 222.382812 75.671875 223.90625 75.953125 C 252.757812 81.273438 276.375 109.539062 280.425781 124.90625 C 281.738281 129.949219 281.902344 132.566406 282.265625 136.6875 C 283.703125 153.871094 272.03125 183.074219 253.332031 191.6875 C 263.082031 183.710938 279.433594 142.035156 231.679688 118.046875 C 219.191406 111.773438 210.167969 109.996094 210.082031 111.617188 Z M 210.082031 111.617188 " fill-opacity="1" fill-rule="nonzero"/><g clip-path="url(#7d93f3fa80)"><path fill="#ffffff" d="M 174.828125 75.476562 L 210.777344 75.34375 C 209.472656 96.835938 210.644531 220.4375 210.644531 220.4375 C 210.382812 240.757812 201.660156 255.863281 191.105469 265.890625 C 190.195312 266.804688 189.285156 267.71875 188.242188 268.496094 C 174.699219 279.960938 161.414062 285.300781 143.179688 285.171875 C 125.203125 284.910156 111.65625 278.136719 100.195312 268.238281 C 91.601562 260.816406 84.699219 251.175781 80.789062 237.890625 C 72.324219 208.71875 83.265625 180.324219 107.492188 163.78125 C 107.882812 163.390625 108.402344 163 108.921875 162.738281 C 119.996094 155.054688 137.1875 150.496094 153.207031 153.101562 L 153.207031 189.832031 C 142.136719 186.964844 132.238281 189.441406 124.945312 195.558594 C 124.816406 195.558594 124.816406 195.691406 124.683594 195.820312 C 117.652344 201.8125 113.609375 210.671875 114.132812 220.699219 C 115.4375 238.671875 130.285156 249.875 146.433594 249.09375 C 146.433594 249.09375 146.5625 249.09375 146.5625 249.09375 C 162.195312 247.527344 175.089844 234.765625 174.699219 217.574219 Z M 174.828125 75.476562 " fill-opacity="1" fill-rule="evenodd"/></g><g clip-path="url(#403a563e53)"><path stroke-linecap="round" transform="matrix(1.302453, 0, 0, 1.302453, -27887.439073, -26947.173394)" fill="none" stroke-linejoin="miter" d="M 21545.700438 20747.501152 L 21573.301597 20747.39918 C 21572.299882 20763.900493 21573.199626 20858.799534 21573.199626 20858.799534 C 21572.998683 20874.401101 21566.301586 20885.998807 21558.197888 20893.69762 C 21557.499086 20894.39942 21556.800285 20895.101221 21555.999512 20895.698051 C 21545.601466 20904.500551 21535.401364 20908.600386 21521.401341 20908.501414 C 21507.599262 20908.300471 21497.198217 20903.099949 21488.398717 20895.500108 C 21481.800591 20889.801726 21476.501096 20882.399829 21473.498949 20872.199727 C 21466.999796 20849.80209 21475.400409 20828.001283 21494.001125 20815.299891 C 21494.30104 20814.999976 21494.699927 20814.700061 21495.098813 20814.499119 C 21503.601398 20808.599794 21516.800648 20805.099789 21529.100154 20807.10022 L 21529.100154 20835.301209 C 21520.600569 20833.099834 21513.000728 20835.001294 21507.401318 20839.69796 C 21507.302346 20839.69796 21507.302346 20839.799931 21507.200375 20839.898903 C 21501.801909 20844.499596 21498.697791 20851.301664 21499.099677 20859.000476 C 21500.101392 20872.799556 21511.501154 20881.401113 21523.899631 20880.801283 C 21523.899631 20880.801283 21523.998603 20880.801283 21523.998603 20880.801283 C 21536.001194 20879.598625 21545.901381 20869.800408 21545.601466 20856.601158 Z M 21545.700438 20747.501152 " stroke="#000000" stroke-width="0.17" stroke-opacity="1" stroke-miterlimit="1.5"/></g><g clip-path="url(#feb7b5e1e3)"><path fill="#ffffff" d="M 297.640625 25.546875 L 62.351562 25.546875 C 61.144531 25.550781 59.945312 25.609375 58.746094 25.730469 C 57.546875 25.851562 56.355469 26.027344 55.175781 26.265625 C 53.992188 26.503906 52.828125 26.796875 51.675781 27.148438 C 50.523438 27.496094 49.390625 27.902344 48.277344 28.367188 C 47.164062 28.828125 46.078125 29.34375 45.015625 29.910156 C 43.953125 30.480469 42.921875 31.097656 41.917969 31.769531 C 40.917969 32.4375 39.949219 33.15625 39.019531 33.921875 C 38.089844 34.683594 37.195312 35.492188 36.34375 36.34375 C 35.492188 37.195312 34.683594 38.089844 33.921875 39.019531 C 33.15625 39.949219 32.4375 40.917969 31.769531 41.917969 C 31.097656 42.921875 30.480469 43.953125 29.910156 45.015625 C 29.34375 46.078125 28.828125 47.164062 28.367188 48.277344 C 27.902344 49.390625 27.496094 50.523438 27.148438 51.675781 C 26.796875 52.828125 26.503906 53.992188 26.265625 55.175781 C 26.027344 56.355469 25.851562 57.546875 25.730469 58.746094 C 25.609375 59.945312 25.550781 61.144531 25.546875 62.351562 L 25.546875 297.640625 C 25.550781 298.84375 25.609375 300.046875 25.730469 301.246094 C 25.851562 302.445312 26.027344 303.636719 26.265625 304.816406 C 26.503906 305.996094 26.796875 307.164062 27.148438 308.316406 C 27.496094 309.46875 27.902344 310.601562 28.367188 311.714844 C 28.828125 312.828125 29.34375 313.914062 29.910156 314.976562 C 30.480469 316.039062 31.097656 317.070312 31.769531 318.074219 C 32.4375 319.074219 33.15625 320.039062 33.921875 320.972656 C 34.683594 321.902344 35.492188 322.792969 36.34375 323.644531 C 37.195312 324.496094 38.089844 325.304688 39.019531 326.070312 C 39.949219 326.835938 40.917969 327.550781 41.917969 328.222656 C 42.921875 328.890625 43.953125 329.511719 45.015625 330.078125 C 46.078125 330.648438 47.164062 331.164062 48.277344 331.625 C 49.390625 332.085938 50.523438 332.492188 51.675781 332.84375 C 52.828125 333.195312 53.992188 333.488281 55.175781 333.726562 C 56.355469 333.960938 57.546875 334.140625 58.746094 334.261719 C 59.945312 334.378906 61.144531 334.441406 62.351562 334.441406 L 297.640625 334.441406 C 298.84375 334.441406 300.046875 334.378906 301.246094 334.261719 C 302.445312 334.140625 303.636719 333.960938 304.816406 333.726562 C 305.996094 333.488281 307.164062 333.195312 308.316406 332.84375 C 309.46875 332.492188 310.601562 332.085938 311.714844 331.625 C 312.828125 331.164062 313.914062 330.648438 314.976562 330.078125 C 316.039062 329.511719 317.070312 328.890625 318.074219 328.222656 C 319.074219 327.550781 320.039062 326.835938 320.972656 326.070312 C 321.902344 325.304688 322.792969 324.496094 323.644531 323.644531 C 324.496094 322.792969 325.304688 321.902344 326.070312 320.972656 C 326.835938 320.039062 327.550781 319.074219 328.222656 318.074219 C 328.890625 317.070312 329.511719 316.039062 330.078125 314.976562 C 330.648438 313.914062 331.164062 312.828125 331.625 311.714844 C 332.085938 310.601562 332.492188 309.46875 332.84375 308.316406 C 333.195312 307.164062 333.488281 305.996094 333.726562 304.816406 C 333.960938 303.636719 334.140625 302.445312 334.261719 301.246094 C 334.378906 300.046875 334.441406 298.84375 334.441406 297.640625 L 334.441406 62.351562 C 334.441406 61.144531 334.378906 59.945312 334.261719 58.746094 C 334.140625 57.546875 333.960938 56.355469 333.726562 55.175781 C 333.488281 53.992188 333.195312 52.828125 332.84375 51.675781 C 332.492188 50.523438 332.085938 49.390625 331.625 48.277344 C 331.164062 47.164062 330.648438 46.078125 330.078125 45.015625 C 329.511719 43.953125 328.890625 42.921875 328.222656 41.917969 C 327.550781 40.917969 326.835938 39.949219 326.070312 39.019531 C 325.304688 38.089844 324.496094 37.195312 323.644531 36.34375 C 322.792969 35.492188 321.902344 34.683594 320.972656 33.921875 C 320.039062 33.15625 319.074219 32.4375 318.074219 31.769531 C 317.070312 31.097656 316.039062 30.480469 314.976562 29.910156 C 313.914062 29.34375 312.828125 28.828125 311.714844 28.367188 C 310.601562 27.902344 309.46875 27.496094 308.316406 27.148438 C 307.164062 26.796875 305.996094 26.503906 304.816406 26.265625 C 303.636719 26.027344 302.445312 25.851562 301.246094 25.730469 C 300.046875 25.609375 298.84375 25.550781 297.640625 25.546875 Z M 329.699219 297.640625 C 329.695312 298.691406 329.644531 299.738281 329.539062 300.78125 C 329.433594 301.824219 329.277344 302.863281 329.070312 303.890625 C 328.867188 304.917969 328.609375 305.9375 328.304688 306.941406 C 328 307.945312 327.644531 308.929688 327.242188 309.898438 C 326.839844 310.867188 326.390625 311.816406 325.894531 312.742188 C 325.398438 313.664062 324.859375 314.5625 324.277344 315.4375 C 323.695312 316.308594 323.070312 317.152344 322.402344 317.960938 C 321.738281 318.773438 321.03125 319.550781 320.292969 320.292969 C 319.550781 321.03125 318.773438 321.738281 317.960938 322.402344 C 317.152344 323.070312 316.308594 323.695312 315.4375 324.277344 C 314.5625 324.859375 313.664062 325.398438 312.742188 325.894531 C 311.816406 326.390625 310.867188 326.839844 309.898438 327.242188 C 308.929688 327.644531 307.945312 328 306.941406 328.304688 C 305.9375 328.609375 304.917969 328.867188 303.890625 329.070312 C 302.863281 329.277344 301.824219 329.433594 300.78125 329.539062 C 299.738281 329.644531 298.691406 329.695312 297.640625 329.699219 L 62.351562 329.699219 C 61.300781 329.695312 60.253906 329.644531 59.210938 329.539062 C 58.167969 329.433594 57.128906 329.277344 56.101562 329.070312 C 55.070312 328.867188 54.054688 328.609375 53.050781 328.304688 C 52.046875 328 51.0625 327.644531 50.09375 327.242188 C 49.121094 326.839844 48.175781 326.390625 47.25 325.894531 C 46.324219 325.398438 45.425781 324.859375 44.554688 324.277344 C 43.683594 323.695312 42.839844 323.070312 42.03125 322.402344 C 41.21875 321.738281 40.441406 321.03125 39.699219 320.292969 C 38.957031 319.550781 38.253906 318.773438 37.589844 317.960938 C 36.921875 317.152344 36.296875 316.308594 35.714844 315.4375 C 35.132812 314.5625 34.589844 313.664062 34.097656 312.742188 C 33.601562 311.816406 33.152344 310.867188 32.75 309.898438 C 32.347656 308.929688 31.992188 307.945312 31.6875 306.941406 C 31.382812 305.9375 31.125 304.917969 30.917969 303.890625 C 30.714844 302.863281 30.558594 301.824219 30.453125 300.78125 C 30.347656 299.738281 30.296875 298.691406 30.292969 297.640625 L 30.292969 62.351562 C 30.296875 61.300781 30.347656 60.253906 30.453125 59.210938 C 30.558594 58.167969 30.714844 57.128906 30.917969 56.101562 C 31.125 55.070312 31.382812 54.054688 31.6875 53.050781 C 31.992188 52.046875 32.347656 51.0625 32.75 50.09375 C 33.152344 49.121094 33.601562 48.175781 34.097656 47.25 C 34.589844 46.324219 35.132812 45.425781 35.714844 44.554688 C 36.296875 43.683594 36.921875 42.839844 37.589844 42.03125 C 38.253906 41.21875 38.957031 40.441406 39.699219 39.699219 C 40.441406 38.957031 41.21875 38.253906 42.03125 37.589844 C 42.839844 36.921875 43.683594 36.296875 44.554688 35.714844 C 45.425781 35.132812 46.324219 34.589844 47.25 34.097656 C 48.175781 33.601562 49.121094 33.152344 50.09375 32.75 C 51.0625 32.347656 52.046875 31.992188 53.050781 31.6875 C 54.054688 31.382812 55.070312 31.125 56.101562 30.917969 C 57.128906 30.714844 58.167969 30.558594 59.210938 30.453125 C 60.253906 30.347656 61.300781 30.296875 62.351562 30.292969 L 297.640625 30.292969 C 298.691406 30.296875 299.738281 30.347656 300.78125 30.453125 C 301.824219 30.558594 302.863281 30.714844 303.890625 30.917969 C 304.917969 31.125 305.9375 31.382812 306.941406 31.6875 C 307.945312 31.992188 308.929688 32.347656 309.898438 32.75 C 310.867188 33.152344 311.816406 33.601562 312.742188 34.097656 C 313.664062 34.589844 314.5625 35.132812 315.4375 35.714844 C 316.308594 36.296875 317.152344 36.921875 317.960938 37.589844 C 318.773438 38.253906 319.550781 38.957031 320.292969 39.699219 C 321.03125 40.441406 321.738281 41.21875 322.402344 42.03125 C 323.070312 42.839844 323.695312 43.683594 324.277344 44.554688 C 324.859375 45.425781 325.398438 46.324219 325.894531 47.25 C 326.390625 48.175781 326.839844 49.121094 327.242188 50.09375 C 327.644531 51.0625 328 52.046875 328.304688 53.050781 C 328.609375 54.054688 328.867188 55.070312 329.070312 56.101562 C 329.277344 57.128906 329.433594 58.167969 329.539062 59.210938 C 329.644531 60.253906 329.695312 61.300781 329.699219 62.351562 Z M 329.699219 297.640625 " fill-opacity="1" fill-rule="nonzero"/></g></svg>