<svg xmlns="http://www.w3.org/2000/svg" xmlns:xlink="http://www.w3.org/1999/xlink" width="480" zoomAndPan="magnify" viewBox="0 0 360 359.999987" height="480" preserveAspectRatio="xMidYMid meet" version="1.0"><defs><clipPath id="1a61585927"><path d="M 12.195312 12.195312 L 347.445312 12.195312 L 347.445312 347.445312 L 12.195312 347.445312 Z M 12.195312 12.195312 " clip-rule="nonzero"/></clipPath><clipPath id="5c494fb84f"><path d="M 76.128906 65.382812 L 283.878906 65.382812 L 283.878906 294.882812 L 76.128906 294.882812 Z M 76.128906 65.382812 " clip-rule="nonzero"/></clipPath></defs><g clip-path="url(#1a61585927)"><path fill="#1800ad" d="M 179.996094 347.796875 C 87.464844 347.796875 12.195312 272.523438 12.195312 179.996094 C 12.195312 87.464844 87.464844 12.195312 179.996094 12.195312 C 272.523438 12.195312 347.796875 87.464844 347.796875 179.996094 C 347.796875 272.523438 272.523438 347.796875 179.996094 347.796875 Z M 179.996094 19.769531 C 91.671875 19.769531 19.769531 91.671875 19.769531 179.996094 C 19.769531 268.316406 91.671875 340.21875 179.996094 340.21875 C 268.316406 340.21875 340.21875 268.316406 340.21875 179.996094 C 340.21875 91.671875 268.398438 19.769531 179.996094 19.769531 Z M 179.996094 19.769531 " fill-opacity="1" fill-rule="nonzero"/></g><g clip-path="url(#5c494fb84f)"><path fill="#1800ad" d="M 280.601562 294.613281 L 216.761719 294.613281 L 166.796875 211.375 L 100.261719 294.613281 L 76.425781 294.613281 L 156.5625 194.273438 L 79.386719 65.382812 L 143.09375 65.382812 L 193.058594 148.617188 L 259.726562 65.382812 L 283.566406 65.382812 L 203.292969 165.722656 Z M 247.738281 276.023438 L 132.585938 83.96875 L 112.25 83.96875 L 227.269531 276.023438 Z M 247.738281 276.023438 " fill-opacity="1" fill-rule="nonzero"/></g></svg>