<svg xmlns="http://www.w3.org/2000/svg" xmlns:xlink="http://www.w3.org/1999/xlink" width="480" zoomAndPan="magnify" viewBox="0 0 360 359.999987" height="480" preserveAspectRatio="xMidYMid meet" version="1.0"><defs><clipPath id="ad43719112"><path d="M 5.425781 5.425781 L 354.925781 5.425781 L 354.925781 354.925781 L 5.425781 354.925781 Z M 5.425781 5.425781 " clip-rule="nonzero"/></clipPath><clipPath id="68c90bb10f"><path d="M 39.171875 39.171875 L 321 39.171875 L 321 321 L 39.171875 321 Z M 39.171875 39.171875 " clip-rule="nonzero"/></clipPath></defs><g clip-path="url(#ad43719112)"><path fill="#1800ad" d="M 179.996094 354.5625 C 83.734375 354.5625 5.425781 276.257812 5.425781 179.996094 C 5.425781 83.734375 83.734375 5.425781 179.996094 5.425781 C 276.257812 5.425781 354.5625 83.734375 354.5625 179.996094 C 354.5625 276.257812 276.257812 354.5625 179.996094 354.5625 Z M 179.996094 13.308594 C 88.113281 13.308594 13.308594 88.113281 13.308594 179.996094 C 13.308594 271.878906 88.113281 346.679688 179.996094 346.679688 C 271.878906 346.679688 346.679688 271.878906 346.679688 179.996094 C 346.679688 88.113281 271.964844 13.308594 179.996094 13.308594 Z M 179.996094 13.308594 " fill-opacity="1" fill-rule="nonzero"/></g><g clip-path="url(#68c90bb10f)"><path fill="#1800ad" d="M 179.996094 39.171875 C 102.207031 39.171875 39.171875 102.207031 39.171875 179.996094 C 39.171875 257.785156 102.207031 320.820312 179.996094 320.820312 C 257.785156 320.820312 320.820312 257.785156 320.820312 179.996094 C 320.699219 102.207031 257.664062 39.171875 179.996094 39.171875 Z M 261.074219 219.378906 C 259.492188 229.742188 250.46875 237.300781 239.984375 237.300781 L 119.886719 237.300781 C 109.402344 237.300781 100.378906 229.742188 98.792969 219.378906 C 97.328125 209.746094 95.867188 196.332031 95.746094 179.875 C 95.867188 163.414062 97.207031 150.125 98.792969 140.371094 C 100.378906 130.007812 109.402344 122.445312 119.886719 122.445312 L 239.984375 122.445312 C 250.46875 122.445312 259.492188 130.007812 261.074219 140.371094 C 262.539062 150 264.003906 163.414062 264.125 179.875 C 264.003906 196.332031 262.539062 209.746094 261.074219 219.378906 Z M 261.074219 219.378906 " fill-opacity="1" fill-rule="nonzero"/></g><path fill="#1800ad" d="M 162.195312 157.074219 L 162.195312 202.796875 L 204.746094 179.996094 Z M 162.195312 157.074219 " fill-opacity="1" fill-rule="nonzero"/></svg>